<?xml version="1.0" encoding="utf-8" standalone="no"?>
<!DOCTYPE svg PUBLIC "-//W3C//DTD SVG 1.1//EN"
  "http://www.w3.org/Graphics/SVG/1.1/DTD/svg11.dtd">
<!-- Created with matplotlib (https://matplotlib.org/) -->
<svg height="248.518125pt" version="1.1" viewBox="0 0 368.925 248.518125" width="368.925pt" xmlns="http://www.w3.org/2000/svg" xmlns:xlink="http://www.w3.org/1999/xlink">
 <metadata>
  <rdf:RDF xmlns:cc="http://creativecommons.org/ns#" xmlns:dc="http://purl.org/dc/elements/1.1/" xmlns:rdf="http://www.w3.org/1999/02/22-rdf-syntax-ns#">
   <cc:Work>
    <dc:type rdf:resource="http://purl.org/dc/dcmitype/StillImage"/>
    <dc:date>2022-07-15T12:14:24.934651</dc:date>
    <dc:format>image/svg+xml</dc:format>
    <dc:creator>
     <cc:Agent>
      <dc:title>Matplotlib v3.3.4, https://matplotlib.org/</dc:title>
     </cc:Agent>
    </dc:creator>
   </cc:Work>
  </rdf:RDF>
 </metadata>
 <defs>
  <style type="text/css">*{stroke-linecap:butt;stroke-linejoin:round;}</style>
 </defs>
 <g id="figure_1">
  <g id="patch_1">
   <path d="M -0 248.518125 
L 368.925 248.518125 
L 368.925 0 
L -0 0 
z
" style="fill:none;"/>
  </g>
  <g id="axes_1">
   <g id="patch_2">
    <path d="M 26.925 224.64 
L 361.725 224.64 
L 361.725 7.2 
L 26.925 7.2 
z
" style="fill:#ffffff;"/>
   </g>
   <g id="matplotlib.axis_1">
    <g id="xtick_1">
     <g id="line2d_1">
      <defs>
       <path d="M 0 0 
L 0 3.5 
" id="m1ce592d309" style="stroke:#000000;stroke-width:0.8;"/>
      </defs>
      <g>
       <use style="stroke:#000000;stroke-width:0.8;" x="42.143182" xlink:href="#m1ce592d309" y="224.64"/>
      </g>
     </g>
     <g id="text_1">
      <!-- 0 -->
      <g transform="translate(38.961932 239.238437)scale(0.1 -0.1)">
       <defs>
        <path d="M 31.78125 66.40625 
Q 24.171875 66.40625 20.328125 58.90625 
Q 16.5 51.421875 16.5 36.375 
Q 16.5 21.390625 20.328125 13.890625 
Q 24.171875 6.390625 31.78125 6.390625 
Q 39.453125 6.390625 43.28125 13.890625 
Q 47.125 21.390625 47.125 36.375 
Q 47.125 51.421875 43.28125 58.90625 
Q 39.453125 66.40625 31.78125 66.40625 
z
M 31.78125 74.21875 
Q 44.046875 74.21875 50.515625 64.515625 
Q 56.984375 54.828125 56.984375 36.375 
Q 56.984375 17.96875 50.515625 8.265625 
Q 44.046875 -1.421875 31.78125 -1.421875 
Q 19.53125 -1.421875 13.0625 8.265625 
Q 6.59375 17.96875 6.59375 36.375 
Q 6.59375 54.828125 13.0625 64.515625 
Q 19.53125 74.21875 31.78125 74.21875 
z
" id="DejaVuSans-48"/>
       </defs>
       <use xlink:href="#DejaVuSans-48"/>
      </g>
     </g>
    </g>
    <g id="xtick_2">
     <g id="line2d_2">
      <g>
       <use style="stroke:#000000;stroke-width:0.8;" x="103.015909" xlink:href="#m1ce592d309" y="224.64"/>
      </g>
     </g>
     <g id="text_2">
      <!-- 20 -->
      <g transform="translate(96.653409 239.238437)scale(0.1 -0.1)">
       <defs>
        <path d="M 19.1875 8.296875 
L 53.609375 8.296875 
L 53.609375 0 
L 7.328125 0 
L 7.328125 8.296875 
Q 12.9375 14.109375 22.625 23.890625 
Q 32.328125 33.6875 34.8125 36.53125 
Q 39.546875 41.84375 41.421875 45.53125 
Q 43.3125 49.21875 43.3125 52.78125 
Q 43.3125 58.59375 39.234375 62.25 
Q 35.15625 65.921875 28.609375 65.921875 
Q 23.96875 65.921875 18.8125 64.3125 
Q 13.671875 62.703125 7.8125 59.421875 
L 7.8125 69.390625 
Q 13.765625 71.78125 18.9375 73 
Q 24.125 74.21875 28.421875 74.21875 
Q 39.75 74.21875 46.484375 68.546875 
Q 53.21875 62.890625 53.21875 53.421875 
Q 53.21875 48.921875 51.53125 44.890625 
Q 49.859375 40.875 45.40625 35.40625 
Q 44.1875 33.984375 37.640625 27.21875 
Q 31.109375 20.453125 19.1875 8.296875 
z
" id="DejaVuSans-50"/>
       </defs>
       <use xlink:href="#DejaVuSans-50"/>
       <use x="63.623047" xlink:href="#DejaVuSans-48"/>
      </g>
     </g>
    </g>
    <g id="xtick_3">
     <g id="line2d_3">
      <g>
       <use style="stroke:#000000;stroke-width:0.8;" x="163.888636" xlink:href="#m1ce592d309" y="224.64"/>
      </g>
     </g>
     <g id="text_3">
      <!-- 40 -->
      <g transform="translate(157.526136 239.238437)scale(0.1 -0.1)">
       <defs>
        <path d="M 37.796875 64.3125 
L 12.890625 25.390625 
L 37.796875 25.390625 
z
M 35.203125 72.90625 
L 47.609375 72.90625 
L 47.609375 25.390625 
L 58.015625 25.390625 
L 58.015625 17.1875 
L 47.609375 17.1875 
L 47.609375 0 
L 37.796875 0 
L 37.796875 17.1875 
L 4.890625 17.1875 
L 4.890625 26.703125 
z
" id="DejaVuSans-52"/>
       </defs>
       <use xlink:href="#DejaVuSans-52"/>
       <use x="63.623047" xlink:href="#DejaVuSans-48"/>
      </g>
     </g>
    </g>
    <g id="xtick_4">
     <g id="line2d_4">
      <g>
       <use style="stroke:#000000;stroke-width:0.8;" x="224.761364" xlink:href="#m1ce592d309" y="224.64"/>
      </g>
     </g>
     <g id="text_4">
      <!-- 60 -->
      <g transform="translate(218.398864 239.238437)scale(0.1 -0.1)">
       <defs>
        <path d="M 33.015625 40.375 
Q 26.375 40.375 22.484375 35.828125 
Q 18.609375 31.296875 18.609375 23.390625 
Q 18.609375 15.53125 22.484375 10.953125 
Q 26.375 6.390625 33.015625 6.390625 
Q 39.65625 6.390625 43.53125 10.953125 
Q 47.40625 15.53125 47.40625 23.390625 
Q 47.40625 31.296875 43.53125 35.828125 
Q 39.65625 40.375 33.015625 40.375 
z
M 52.59375 71.296875 
L 52.59375 62.3125 
Q 48.875 64.0625 45.09375 64.984375 
Q 41.3125 65.921875 37.59375 65.921875 
Q 27.828125 65.921875 22.671875 59.328125 
Q 17.53125 52.734375 16.796875 39.40625 
Q 19.671875 43.65625 24.015625 45.921875 
Q 28.375 48.1875 33.59375 48.1875 
Q 44.578125 48.1875 50.953125 41.515625 
Q 57.328125 34.859375 57.328125 23.390625 
Q 57.328125 12.15625 50.6875 5.359375 
Q 44.046875 -1.421875 33.015625 -1.421875 
Q 20.359375 -1.421875 13.671875 8.265625 
Q 6.984375 17.96875 6.984375 36.375 
Q 6.984375 53.65625 15.1875 63.9375 
Q 23.390625 74.21875 37.203125 74.21875 
Q 40.921875 74.21875 44.703125 73.484375 
Q 48.484375 72.75 52.59375 71.296875 
z
" id="DejaVuSans-54"/>
       </defs>
       <use xlink:href="#DejaVuSans-54"/>
       <use x="63.623047" xlink:href="#DejaVuSans-48"/>
      </g>
     </g>
    </g>
    <g id="xtick_5">
     <g id="line2d_5">
      <g>
       <use style="stroke:#000000;stroke-width:0.8;" x="285.634091" xlink:href="#m1ce592d309" y="224.64"/>
      </g>
     </g>
     <g id="text_5">
      <!-- 80 -->
      <g transform="translate(279.271591 239.238437)scale(0.1 -0.1)">
       <defs>
        <path d="M 31.78125 34.625 
Q 24.75 34.625 20.71875 30.859375 
Q 16.703125 27.09375 16.703125 20.515625 
Q 16.703125 13.921875 20.71875 10.15625 
Q 24.75 6.390625 31.78125 6.390625 
Q 38.8125 6.390625 42.859375 10.171875 
Q 46.921875 13.96875 46.921875 20.515625 
Q 46.921875 27.09375 42.890625 30.859375 
Q 38.875 34.625 31.78125 34.625 
z
M 21.921875 38.8125 
Q 15.578125 40.375 12.03125 44.71875 
Q 8.5 49.078125 8.5 55.328125 
Q 8.5 64.0625 14.71875 69.140625 
Q 20.953125 74.21875 31.78125 74.21875 
Q 42.671875 74.21875 48.875 69.140625 
Q 55.078125 64.0625 55.078125 55.328125 
Q 55.078125 49.078125 51.53125 44.71875 
Q 48 40.375 41.703125 38.8125 
Q 48.828125 37.15625 52.796875 32.3125 
Q 56.78125 27.484375 56.78125 20.515625 
Q 56.78125 9.90625 50.3125 4.234375 
Q 43.84375 -1.421875 31.78125 -1.421875 
Q 19.734375 -1.421875 13.25 4.234375 
Q 6.78125 9.90625 6.78125 20.515625 
Q 6.78125 27.484375 10.78125 32.3125 
Q 14.796875 37.15625 21.921875 38.8125 
z
M 18.3125 54.390625 
Q 18.3125 48.734375 21.84375 45.5625 
Q 25.390625 42.390625 31.78125 42.390625 
Q 38.140625 42.390625 41.71875 45.5625 
Q 45.3125 48.734375 45.3125 54.390625 
Q 45.3125 60.0625 41.71875 63.234375 
Q 38.140625 66.40625 31.78125 66.40625 
Q 25.390625 66.40625 21.84375 63.234375 
Q 18.3125 60.0625 18.3125 54.390625 
z
" id="DejaVuSans-56"/>
       </defs>
       <use xlink:href="#DejaVuSans-56"/>
       <use x="63.623047" xlink:href="#DejaVuSans-48"/>
      </g>
     </g>
    </g>
    <g id="xtick_6">
     <g id="line2d_6">
      <g>
       <use style="stroke:#000000;stroke-width:0.8;" x="346.506818" xlink:href="#m1ce592d309" y="224.64"/>
      </g>
     </g>
     <g id="text_6">
      <!-- 100 -->
      <g transform="translate(336.963068 239.238437)scale(0.1 -0.1)">
       <defs>
        <path d="M 12.40625 8.296875 
L 28.515625 8.296875 
L 28.515625 63.921875 
L 10.984375 60.40625 
L 10.984375 69.390625 
L 28.421875 72.90625 
L 38.28125 72.90625 
L 38.28125 8.296875 
L 54.390625 8.296875 
L 54.390625 0 
L 12.40625 0 
z
" id="DejaVuSans-49"/>
       </defs>
       <use xlink:href="#DejaVuSans-49"/>
       <use x="63.623047" xlink:href="#DejaVuSans-48"/>
       <use x="127.246094" xlink:href="#DejaVuSans-48"/>
      </g>
     </g>
    </g>
   </g>
   <g id="matplotlib.axis_2">
    <g id="ytick_1">
     <g id="line2d_7">
      <defs>
       <path d="M 0 0 
L -3.5 0 
" id="m47f4322ff9" style="stroke:#000000;stroke-width:0.8;"/>
      </defs>
      <g>
       <use style="stroke:#000000;stroke-width:0.8;" x="26.925" xlink:href="#m47f4322ff9" y="214.756371"/>
      </g>
     </g>
     <g id="text_7">
      <!-- 0 -->
      <g transform="translate(13.5625 218.55559)scale(0.1 -0.1)">
       <use xlink:href="#DejaVuSans-48"/>
      </g>
     </g>
    </g>
    <g id="ytick_2">
     <g id="line2d_8">
      <g>
       <use style="stroke:#000000;stroke-width:0.8;" x="26.925" xlink:href="#m47f4322ff9" y="175.22182"/>
      </g>
     </g>
     <g id="text_8">
      <!-- 2 -->
      <g transform="translate(13.5625 179.021039)scale(0.1 -0.1)">
       <use xlink:href="#DejaVuSans-50"/>
      </g>
     </g>
    </g>
    <g id="ytick_3">
     <g id="line2d_9">
      <g>
       <use style="stroke:#000000;stroke-width:0.8;" x="26.925" xlink:href="#m47f4322ff9" y="135.687269"/>
      </g>
     </g>
     <g id="text_9">
      <!-- 4 -->
      <g transform="translate(13.5625 139.486488)scale(0.1 -0.1)">
       <use xlink:href="#DejaVuSans-52"/>
      </g>
     </g>
    </g>
    <g id="ytick_4">
     <g id="line2d_10">
      <g>
       <use style="stroke:#000000;stroke-width:0.8;" x="26.925" xlink:href="#m47f4322ff9" y="96.152718"/>
      </g>
     </g>
     <g id="text_10">
      <!-- 6 -->
      <g transform="translate(13.5625 99.951937)scale(0.1 -0.1)">
       <use xlink:href="#DejaVuSans-54"/>
      </g>
     </g>
    </g>
    <g id="ytick_5">
     <g id="line2d_11">
      <g>
       <use style="stroke:#000000;stroke-width:0.8;" x="26.925" xlink:href="#m47f4322ff9" y="56.618168"/>
      </g>
     </g>
     <g id="text_11">
      <!-- 8 -->
      <g transform="translate(13.5625 60.417386)scale(0.1 -0.1)">
       <use xlink:href="#DejaVuSans-56"/>
      </g>
     </g>
    </g>
    <g id="ytick_6">
     <g id="line2d_12">
      <g>
       <use style="stroke:#000000;stroke-width:0.8;" x="26.925" xlink:href="#m47f4322ff9" y="17.083617"/>
      </g>
     </g>
     <g id="text_12">
      <!-- 10 -->
      <g transform="translate(7.2 20.882835)scale(0.1 -0.1)">
       <use xlink:href="#DejaVuSans-49"/>
       <use x="63.623047" xlink:href="#DejaVuSans-48"/>
      </g>
     </g>
    </g>
   </g>
   <g id="line2d_13">
    <path clip-path="url(#p1b25cbb821)" d="M 26.925 194.989096 
L 361.725 194.989096 
" style="fill:none;stroke:#808080;stroke-dasharray:5,5;stroke-dashoffset:0;stroke-width:0.5;"/>
   </g>
   <g id="line2d_14">
    <path clip-path="url(#p1b25cbb821)" d="M 42.143182 17.083636 
L 163.158164 17.194994 
L 180.628636 17.433668 
L 191.403109 17.791778 
L 199.286127 18.26755 
L 205.525582 18.85902 
L 210.7302 19.569137 
L 215.204345 20.39798 
L 219.161073 21.352828 
L 222.722127 22.438954 
L 225.948382 23.653469 
L 228.900709 24.999496 
L 231.639982 26.490972 
L 234.196636 28.136847 
L 236.570673 29.929682 
L 238.792527 31.886656 
L 240.8622 34.004249 
L 242.810127 36.313542 
L 244.666745 38.863061 
L 246.432055 41.672204 
L 248.106055 44.757547 
L 249.719182 48.198992 
L 251.301873 52.108674 
L 252.854127 56.547045 
L 254.406382 61.677043 
L 255.958636 67.587889 
L 257.571764 74.635432 
L 259.2762 83.128696 
L 261.132818 93.568611 
L 263.324236 107.234648 
L 267.676636 136.246534 
L 270.263727 152.532806 
L 272.211655 163.444897 
L 273.946527 171.946399 
L 275.559655 178.775215 
L 277.111909 184.399401 
L 278.603291 188.995437 
L 280.094673 192.883694 
L 281.555618 196.092341 
L 283.047 198.841474 
L 284.568818 201.182588 
L 286.121073 203.167023 
L 287.7342 204.872783 
L 289.438636 206.353043 
L 291.264818 207.643601 
L 293.243182 208.768604 
L 295.4346 209.757117 
L 297.930382 210.63263 
L 300.7914 211.394561 
L 304.169836 212.057944 
L 308.278745 212.630281 
L 313.452927 213.116306 
L 320.240236 213.518293 
L 329.675509 213.839195 
L 343.858855 214.079829 
L 346.506818 214.107677 
L 346.506818 214.107677 
" style="fill:none;stroke:#1f77b4;stroke-linecap:square;stroke-width:1.5;"/>
   </g>
   <g id="line2d_15">
    <path clip-path="url(#p1b25cbb821)" d="M 42.143182 214.756364 
L 188.2986 214.645387 
L 206.103873 214.405783 
L 217.304455 214.043958 
L 225.583145 213.563761 
L 231.944345 212.981624 
L 236.783727 212.325274 
L 240.496964 211.606845 
L 243.479727 210.810173 
L 245.975509 209.918896 
L 248.166927 208.90416 
L 250.175727 207.731139 
L 252.123655 206.331878 
L 254.102018 204.627323 
L 256.323873 202.403302 
L 261.802418 196.753829 
L 263.111182 195.811573 
L 264.237327 195.265639 
L 265.241727 195.020367 
L 266.185255 195.012908 
L 267.128782 195.224061 
L 268.133182 195.679404 
L 269.259327 196.444765 
L 270.598527 197.642057 
L 272.394273 199.576869 
L 278.207618 206.060722 
L 280.185982 207.81646 
L 282.103473 209.22336 
L 284.0514 210.377531 
L 286.121073 211.343088 
L 288.373364 212.146545 
L 290.930018 212.81919 
L 293.943218 213.376317 
L 297.656455 213.828385 
L 302.495836 214.182384 
L 309.374455 214.445555 
L 320.453291 214.622076 
L 343.189255 214.720329 
L 346.506818 214.72567 
L 346.506818 214.72567 
" style="fill:none;stroke:#ff7f0e;stroke-linecap:square;stroke-width:1.5;"/>
   </g>
   <g id="line2d_16">
    <path clip-path="url(#p1b25cbb821)" d="M 265.759145 224.64 
L 265.759145 7.2 
" style="fill:none;stroke:#808080;stroke-dasharray:1.25,2.5;stroke-dashoffset:0;stroke-width:1.25;"/>
   </g>
   <g id="line2d_17">
    <path clip-path="url(#p1b25cbb821)" d="M 264.328636 224.64 
L 264.328636 7.2 
" style="fill:none;stroke:#808080;stroke-dasharray:5,5;stroke-dashoffset:0;stroke-width:0.5;"/>
   </g>
   <g id="line2d_18">
    <path clip-path="url(#p1b25cbb821)" d="M 42.143182 175.261438 
L 45.186818 175.261461 
L 48.230455 175.261482 
L 51.274091 175.261517 
L 54.317727 175.261564 
L 57.361364 175.261613 
L 60.405 175.261673 
L 63.448636 175.261746 
L 66.492273 175.261833 
L 69.535909 175.261938 
L 72.579545 175.262064 
L 75.623182 175.262217 
L 78.666818 175.2624 
L 81.710455 175.26262 
L 84.754091 175.262884 
L 87.797727 175.2632 
L 90.841364 175.26358 
L 93.885 175.264036 
L 96.928636 175.264582 
L 99.972273 175.265237 
L 103.015909 175.266021 
L 106.059545 175.266959 
L 109.103182 175.268083 
L 112.146818 175.269427 
L 115.190455 175.271034 
L 118.234091 175.272956 
L 121.277727 175.275251 
L 124.321364 175.277992 
L 127.365 175.281264 
L 130.408636 175.285167 
L 133.452273 175.28982 
L 136.495909 175.295364 
L 139.539545 175.301966 
L 142.583182 175.309821 
L 145.626818 175.319162 
L 148.670455 175.330262 
L 151.714091 175.343441 
L 154.757727 175.359076 
L 157.801364 175.377609 
L 160.845 175.399557 
L 163.888636 175.425523 
L 166.932273 175.45621 
L 169.975909 175.492439 
L 173.019545 175.535159 
L 176.063182 175.585468 
L 179.106818 175.644637 
L 182.150455 175.714122 
L 185.194091 175.795598 
L 188.237727 175.890971 
L 191.281364 176.002411 
L 194.325 176.331724 
L 197.368636 176.522791 
L 200.412273 176.744425 
L 203.455909 176.999895 
L 206.499545 177.291921 
L 209.543182 177.622037 
L 212.586818 177.989594 
L 215.630455 178.390288 
L 218.674091 178.814074 
L 221.717727 179.24242 
L 224.761364 179.645103 
L 227.805 179.977363 
L 230.848636 180.179575 
L 233.892273 180.183843 
L 236.935909 179.934806 
L 239.979545 179.432512 
L 243.023182 178.796195 
L 246.066818 178.320388 
L 249.110455 178.459327 
L 252.154091 179.684316 
L 255.197727 182.257489 
L 258.241364 186.072873 
L 261.285 190.681413 
L 264.328636 195.471452 
L 267.372273 199.888501 
L 270.415909 203.587915 
L 273.459545 206.467414 
L 276.503182 208.599467 
L 279.546818 210.133573 
L 282.590455 211.224891 
L 285.634091 212.001863 
L 288.677727 212.559846 
L 291.721364 212.965865 
L 294.765 213.265873 
L 297.808636 213.491135 
L 300.852273 213.662973 
L 303.895909 213.796055 
L 306.939545 213.900586 
L 309.983182 213.983763 
L 313.026818 214.050733 
L 316.070455 214.105232 
L 319.114091 214.150006 
L 322.157727 214.187103 
L 325.201364 214.21807 
L 328.245 214.244089 
L 331.288636 214.266075 
L 334.332273 214.284744 
L 337.375909 214.30066 
L 340.419545 214.314276 
L 343.463182 214.325954 
L 346.506818 214.335989 
" style="fill:none;stroke:#2ca02c;stroke-linecap:square;stroke-width:1.5;"/>
   </g>
   <g id="line2d_19">
    <path clip-path="url(#p1b25cbb821)" d="M 264.328636 224.64 
L 264.328636 7.2 
" style="fill:none;stroke:#808080;stroke-dasharray:5,5;stroke-dashoffset:0;stroke-width:0.5;"/>
   </g>
   <g id="line2d_20">
    <path clip-path="url(#p1b25cbb821)" d="M 42.143182 175.261429 
L 45.186818 175.261461 
L 48.230455 175.261482 
L 51.274091 175.261523 
L 54.317727 175.261564 
L 57.361364 175.261609 
L 60.405 175.261673 
L 63.448636 175.261746 
L 66.492273 175.261831 
L 69.535909 175.261938 
L 72.579545 175.262064 
L 75.623182 175.262217 
L 78.666818 175.2624 
L 81.710455 175.26262 
L 84.754091 175.262884 
L 87.797727 175.2632 
L 90.841364 175.26358 
L 93.885 175.264036 
L 96.928636 175.264582 
L 99.972273 175.265237 
L 103.015909 175.266021 
L 106.059545 175.266959 
L 109.103182 175.268083 
L 112.146818 175.269427 
L 115.190455 175.271034 
L 118.234091 175.272956 
L 121.277727 175.275251 
L 124.321364 175.277992 
L 127.365 175.281264 
L 130.408636 175.285167 
L 133.452273 175.28982 
L 136.495909 175.295364 
L 139.539545 175.301966 
L 142.583182 175.309821 
L 145.626818 175.319162 
L 148.670455 175.330262 
L 151.714091 175.343441 
L 154.757727 175.359076 
L 157.801364 175.377609 
L 160.845 175.399557 
L 163.888636 175.425523 
L 166.932273 175.45621 
L 169.975909 175.492439 
L 173.019545 175.535159 
L 176.063182 175.585468 
L 179.106818 175.644637 
L 182.150455 175.714122 
L 185.194091 175.795598 
L 188.237727 175.890971 
L 191.281364 176.002411 
L 194.325 176.331724 
L 197.368636 176.522791 
L 200.412273 176.744425 
L 203.455909 176.999895 
L 206.499545 177.291921 
L 209.543182 177.622037 
L 212.586818 177.989595 
L 215.630455 178.390288 
L 218.674091 178.814074 
L 221.717727 179.24242 
L 224.761364 179.645103 
L 227.805 179.977363 
L 230.848636 180.179575 
L 233.892273 180.183843 
L 236.935909 179.934806 
L 239.979545 179.432513 
L 243.023182 178.796194 
L 246.066818 178.320387 
L 249.110455 178.459326 
L 252.154091 179.684316 
L 255.197727 182.25749 
L 258.241364 186.072873 
L 261.285 190.681413 
L 264.328636 195.471453 
L 267.372273 199.888501 
L 270.415909 203.587915 
L 273.459545 206.467414 
L 276.503182 208.599468 
L 279.546818 210.133573 
L 282.590455 211.224891 
L 285.634091 212.001864 
L 288.677727 212.559846 
L 291.721364 212.965865 
L 294.765 213.265873 
L 297.808636 213.491135 
L 300.852273 213.662973 
L 303.895909 213.796055 
L 306.939545 213.900586 
L 309.983182 213.983763 
L 313.026818 214.050733 
L 316.070455 214.105232 
L 319.114091 214.150006 
L 322.157727 214.187103 
L 325.201364 214.21807 
L 328.245 214.244089 
L 331.288636 214.266075 
L 334.332273 214.284744 
L 337.375909 214.30066 
L 340.419545 214.314276 
L 343.463182 214.325954 
L 346.506818 214.335989 
" style="fill:none;stroke:#d62728;stroke-dasharray:5.55,2.4;stroke-dashoffset:0;stroke-width:1.5;"/>
   </g>
   <g id="line2d_21">
    <path clip-path="url(#p1b25cbb821)" d="M 264.328636 224.64 
L 264.328636 7.2 
" style="fill:none;stroke:#808080;stroke-dasharray:5,5;stroke-dashoffset:0;stroke-width:0.5;"/>
   </g>
   <g id="line2d_22">
    <path clip-path="url(#p1b25cbb821)" d="M 42.143182 175.261438 
L 45.186818 175.261461 
L 48.230455 175.261482 
L 51.274091 175.261517 
L 54.317727 175.261564 
L 57.361364 175.261613 
L 60.405 175.261673 
L 63.448636 175.261746 
L 66.492273 175.261833 
L 69.535909 175.261938 
L 72.579545 175.262064 
L 75.623182 175.262217 
L 78.666818 175.2624 
L 81.710455 175.26262 
L 84.754091 175.262884 
L 87.797727 175.2632 
L 90.841364 175.26358 
L 93.885 175.264036 
L 96.928636 175.264582 
L 99.972273 175.265237 
L 103.015909 175.266021 
L 106.059545 175.266959 
L 109.103182 175.268083 
L 112.146818 175.269427 
L 115.190455 175.271034 
L 118.234091 175.272956 
L 121.277727 175.275251 
L 124.321364 175.277992 
L 127.365 175.281264 
L 130.408636 175.285167 
L 133.452273 175.28982 
L 136.495909 175.295364 
L 139.539545 175.301966 
L 142.583182 175.309821 
L 145.626818 175.319162 
L 148.670455 175.330262 
L 151.714091 175.343441 
L 154.757727 175.359076 
L 157.801364 175.377609 
L 160.845 175.399557 
L 163.888636 175.425523 
L 166.932273 175.45621 
L 169.975909 175.492439 
L 173.019545 175.535159 
L 176.063182 175.585468 
L 179.106818 175.644637 
L 182.150455 175.714122 
L 185.194091 175.795598 
L 188.237727 175.890971 
L 191.281364 176.002411 
L 194.325 176.331724 
L 197.368636 176.522791 
L 200.412273 176.744425 
L 203.455909 176.999895 
L 206.499545 177.291921 
L 209.543182 177.622037 
L 212.586818 177.989594 
L 215.630455 178.390288 
L 218.674091 178.814074 
L 221.717727 179.24242 
L 224.761364 179.645103 
L 227.805 179.977363 
L 230.848636 180.179575 
L 233.892273 180.183843 
L 236.935909 179.934806 
L 239.979545 179.432512 
L 243.023182 178.796195 
L 246.066818 178.320388 
L 249.110455 178.459327 
L 252.154091 179.684316 
L 255.197727 182.257489 
L 258.241364 186.072873 
L 261.285 190.681413 
L 264.328636 195.471452 
L 267.372273 199.888501 
L 270.415909 203.587915 
L 273.459545 206.467414 
L 276.503182 208.599467 
L 279.546818 210.133573 
L 282.590455 211.224891 
L 285.634091 212.001863 
L 288.677727 212.559846 
L 291.721364 212.965865 
L 294.765 213.265873 
L 297.808636 213.491135 
L 300.852273 213.662973 
L 303.895909 213.796055 
L 306.939545 213.900586 
L 309.983182 213.983763 
L 313.026818 214.050733 
L 316.070455 214.105232 
L 319.114091 214.150006 
L 322.157727 214.187103 
L 325.201364 214.21807 
L 328.245 214.244089 
L 331.288636 214.266075 
L 334.332273 214.284744 
L 337.375909 214.30066 
L 340.419545 214.314276 
L 343.463182 214.325954 
L 346.506818 214.335989 
" style="fill:none;stroke:#9467bd;stroke-dasharray:9.6,2.4,1.5,2.4;stroke-dashoffset:0;stroke-width:1.5;"/>
   </g>
   <g id="line2d_23">
    <path clip-path="url(#p1b25cbb821)" d="M 264.328636 224.64 
L 264.328636 7.2 
" style="fill:none;stroke:#808080;stroke-dasharray:5,5;stroke-dashoffset:0;stroke-width:0.5;"/>
   </g>
   <g id="line2d_24">
    <path clip-path="url(#p1b25cbb821)" d="M 42.143182 175.261429 
L 45.186818 175.261461 
L 48.230455 175.261482 
L 51.274091 175.261523 
L 54.317727 175.261564 
L 57.361364 175.261609 
L 60.405 175.261673 
L 63.448636 175.261746 
L 66.492273 175.261831 
L 69.535909 175.261938 
L 72.579545 175.262064 
L 75.623182 175.262217 
L 78.666818 175.2624 
L 81.710455 175.26262 
L 84.754091 175.262884 
L 87.797727 175.2632 
L 90.841364 175.26358 
L 93.885 175.264036 
L 96.928636 175.264582 
L 99.972273 175.265237 
L 103.015909 175.266021 
L 106.059545 175.266959 
L 109.103182 175.268083 
L 112.146818 175.269427 
L 115.190455 175.271034 
L 118.234091 175.272956 
L 121.277727 175.275251 
L 124.321364 175.277992 
L 127.365 175.281264 
L 130.408636 175.285167 
L 133.452273 175.28982 
L 136.495909 175.295364 
L 139.539545 175.301966 
L 142.583182 175.309821 
L 145.626818 175.319162 
L 148.670455 175.330262 
L 151.714091 175.343441 
L 154.757727 175.359076 
L 157.801364 175.377609 
L 160.845 175.399557 
L 163.888636 175.425523 
L 166.932273 175.45621 
L 169.975909 175.492439 
L 173.019545 175.535159 
L 176.063182 175.585468 
L 179.106818 175.644637 
L 182.150455 175.714122 
L 185.194091 175.795598 
L 188.237727 175.890971 
L 191.281364 176.002411 
L 194.325 176.331724 
L 197.368636 176.522791 
L 200.412273 176.744425 
L 203.455909 176.999895 
L 206.499545 177.291921 
L 209.543182 177.622037 
L 212.586818 177.989595 
L 215.630455 178.390288 
L 218.674091 178.814074 
L 221.717727 179.24242 
L 224.761364 179.645103 
L 227.805 179.977363 
L 230.848636 180.179575 
L 233.892273 180.183843 
L 236.935909 179.934806 
L 239.979545 179.432513 
L 243.023182 178.796194 
L 246.066818 178.320387 
L 249.110455 178.459326 
L 252.154091 179.684316 
L 255.197727 182.25749 
L 258.241364 186.072873 
L 261.285 190.681413 
L 264.328636 195.471453 
L 267.372273 199.888501 
L 270.415909 203.587915 
L 273.459545 206.467414 
L 276.503182 208.599468 
L 279.546818 210.133573 
L 282.590455 211.224891 
L 285.634091 212.001864 
L 288.677727 212.559846 
L 291.721364 212.965865 
L 294.765 213.265873 
L 297.808636 213.491135 
L 300.852273 213.662973 
L 303.895909 213.796055 
L 306.939545 213.900586 
L 309.983182 213.983763 
L 313.026818 214.050733 
L 316.070455 214.105232 
L 319.114091 214.150006 
L 322.157727 214.187103 
L 325.201364 214.21807 
L 328.245 214.244089 
L 331.288636 214.266075 
L 334.332273 214.284744 
L 337.375909 214.30066 
L 340.419545 214.314276 
L 343.463182 214.325954 
L 346.506818 214.335989 
" style="fill:none;stroke:#8c564b;stroke-dasharray:1.5,2.475;stroke-dashoffset:0;stroke-width:1.5;"/>
   </g>
   <g id="patch_3">
    <path d="M 26.925 224.64 
L 26.925 7.2 
" style="fill:none;stroke:#000000;stroke-linecap:square;stroke-linejoin:miter;stroke-width:0.8;"/>
   </g>
   <g id="patch_4">
    <path d="M 361.725 224.64 
L 361.725 7.2 
" style="fill:none;stroke:#000000;stroke-linecap:square;stroke-linejoin:miter;stroke-width:0.8;"/>
   </g>
   <g id="patch_5">
    <path d="M 26.925 224.64 
L 361.725 224.64 
" style="fill:none;stroke:#000000;stroke-linecap:square;stroke-linejoin:miter;stroke-width:0.8;"/>
   </g>
   <g id="patch_6">
    <path d="M 26.925 7.2 
L 361.725 7.2 
" style="fill:none;stroke:#000000;stroke-linecap:square;stroke-linejoin:miter;stroke-width:0.8;"/>
   </g>
   <g id="legend_1">
    <g id="patch_7">
     <path d="M 33.925 161.454375 
L 163.640625 161.454375 
Q 165.640625 161.454375 165.640625 159.454375 
L 165.640625 72.385625 
Q 165.640625 70.385625 163.640625 70.385625 
L 33.925 70.385625 
Q 31.925 70.385625 31.925 72.385625 
L 31.925 159.454375 
Q 31.925 161.454375 33.925 161.454375 
z
" style="fill:#ffffff;opacity:0.8;stroke:#cccccc;stroke-linejoin:miter;"/>
    </g>
    <g id="line2d_25">
     <path d="M 35.925 78.484062 
L 55.925 78.484062 
" style="fill:none;stroke:#1f77b4;stroke-linecap:square;stroke-width:1.5;"/>
    </g>
    <g id="line2d_26"/>
    <g id="text_13">
     <!-- ANA -->
     <g transform="translate(63.925 81.984062)scale(0.1 -0.1)">
      <defs>
       <path d="M 34.1875 63.1875 
L 20.796875 26.90625 
L 47.609375 26.90625 
z
M 28.609375 72.90625 
L 39.796875 72.90625 
L 67.578125 0 
L 57.328125 0 
L 50.6875 18.703125 
L 17.828125 18.703125 
L 11.1875 0 
L 0.78125 0 
z
" id="DejaVuSans-65"/>
       <path d="M 9.8125 72.90625 
L 23.09375 72.90625 
L 55.421875 11.921875 
L 55.421875 72.90625 
L 64.984375 72.90625 
L 64.984375 0 
L 51.703125 0 
L 19.390625 60.984375 
L 19.390625 0 
L 9.8125 0 
z
" id="DejaVuSans-78"/>
      </defs>
      <use xlink:href="#DejaVuSans-65"/>
      <use x="68.408203" xlink:href="#DejaVuSans-78"/>
      <use x="143.212891" xlink:href="#DejaVuSans-65"/>
     </g>
    </g>
    <g id="line2d_27">
     <path d="M 35.925 93.162187 
L 55.925 93.162187 
" style="fill:none;stroke:#ff7f0e;stroke-linecap:square;stroke-width:1.5;"/>
    </g>
    <g id="line2d_28"/>
    <g id="text_14">
     <!-- Inf (scaled) -->
     <g transform="translate(63.925 96.662187)scale(0.1 -0.1)">
      <defs>
       <path d="M 9.8125 72.90625 
L 19.671875 72.90625 
L 19.671875 0 
L 9.8125 0 
z
" id="DejaVuSans-73"/>
       <path d="M 54.890625 33.015625 
L 54.890625 0 
L 45.90625 0 
L 45.90625 32.71875 
Q 45.90625 40.484375 42.875 44.328125 
Q 39.84375 48.1875 33.796875 48.1875 
Q 26.515625 48.1875 22.3125 43.546875 
Q 18.109375 38.921875 18.109375 30.90625 
L 18.109375 0 
L 9.078125 0 
L 9.078125 54.6875 
L 18.109375 54.6875 
L 18.109375 46.1875 
Q 21.34375 51.125 25.703125 53.5625 
Q 30.078125 56 35.796875 56 
Q 45.21875 56 50.046875 50.171875 
Q 54.890625 44.34375 54.890625 33.015625 
z
" id="DejaVuSans-110"/>
       <path d="M 37.109375 75.984375 
L 37.109375 68.5 
L 28.515625 68.5 
Q 23.6875 68.5 21.796875 66.546875 
Q 19.921875 64.59375 19.921875 59.515625 
L 19.921875 54.6875 
L 34.71875 54.6875 
L 34.71875 47.703125 
L 19.921875 47.703125 
L 19.921875 0 
L 10.890625 0 
L 10.890625 47.703125 
L 2.296875 47.703125 
L 2.296875 54.6875 
L 10.890625 54.6875 
L 10.890625 58.5 
Q 10.890625 67.625 15.140625 71.796875 
Q 19.390625 75.984375 28.609375 75.984375 
z
" id="DejaVuSans-102"/>
       <path id="DejaVuSans-32"/>
       <path d="M 31 75.875 
Q 24.46875 64.65625 21.28125 53.65625 
Q 18.109375 42.671875 18.109375 31.390625 
Q 18.109375 20.125 21.3125 9.0625 
Q 24.515625 -2 31 -13.1875 
L 23.1875 -13.1875 
Q 15.875 -1.703125 12.234375 9.375 
Q 8.59375 20.453125 8.59375 31.390625 
Q 8.59375 42.28125 12.203125 53.3125 
Q 15.828125 64.359375 23.1875 75.875 
z
" id="DejaVuSans-40"/>
       <path d="M 44.28125 53.078125 
L 44.28125 44.578125 
Q 40.484375 46.53125 36.375 47.5 
Q 32.28125 48.484375 27.875 48.484375 
Q 21.1875 48.484375 17.84375 46.4375 
Q 14.5 44.390625 14.5 40.28125 
Q 14.5 37.15625 16.890625 35.375 
Q 19.28125 33.59375 26.515625 31.984375 
L 29.59375 31.296875 
Q 39.15625 29.25 43.1875 25.515625 
Q 47.21875 21.78125 47.21875 15.09375 
Q 47.21875 7.46875 41.1875 3.015625 
Q 35.15625 -1.421875 24.609375 -1.421875 
Q 20.21875 -1.421875 15.453125 -0.5625 
Q 10.6875 0.296875 5.421875 2 
L 5.421875 11.28125 
Q 10.40625 8.6875 15.234375 7.390625 
Q 20.0625 6.109375 24.8125 6.109375 
Q 31.15625 6.109375 34.5625 8.28125 
Q 37.984375 10.453125 37.984375 14.40625 
Q 37.984375 18.0625 35.515625 20.015625 
Q 33.0625 21.96875 24.703125 23.78125 
L 21.578125 24.515625 
Q 13.234375 26.265625 9.515625 29.90625 
Q 5.8125 33.546875 5.8125 39.890625 
Q 5.8125 47.609375 11.28125 51.796875 
Q 16.75 56 26.8125 56 
Q 31.78125 56 36.171875 55.265625 
Q 40.578125 54.546875 44.28125 53.078125 
z
" id="DejaVuSans-115"/>
       <path d="M 48.78125 52.59375 
L 48.78125 44.1875 
Q 44.96875 46.296875 41.140625 47.34375 
Q 37.3125 48.390625 33.40625 48.390625 
Q 24.65625 48.390625 19.8125 42.84375 
Q 14.984375 37.3125 14.984375 27.296875 
Q 14.984375 17.28125 19.8125 11.734375 
Q 24.65625 6.203125 33.40625 6.203125 
Q 37.3125 6.203125 41.140625 7.25 
Q 44.96875 8.296875 48.78125 10.40625 
L 48.78125 2.09375 
Q 45.015625 0.34375 40.984375 -0.53125 
Q 36.96875 -1.421875 32.421875 -1.421875 
Q 20.0625 -1.421875 12.78125 6.34375 
Q 5.515625 14.109375 5.515625 27.296875 
Q 5.515625 40.671875 12.859375 48.328125 
Q 20.21875 56 33.015625 56 
Q 37.15625 56 41.109375 55.140625 
Q 45.0625 54.296875 48.78125 52.59375 
z
" id="DejaVuSans-99"/>
       <path d="M 34.28125 27.484375 
Q 23.390625 27.484375 19.1875 25 
Q 14.984375 22.515625 14.984375 16.5 
Q 14.984375 11.71875 18.140625 8.90625 
Q 21.296875 6.109375 26.703125 6.109375 
Q 34.1875 6.109375 38.703125 11.40625 
Q 43.21875 16.703125 43.21875 25.484375 
L 43.21875 27.484375 
z
M 52.203125 31.203125 
L 52.203125 0 
L 43.21875 0 
L 43.21875 8.296875 
Q 40.140625 3.328125 35.546875 0.953125 
Q 30.953125 -1.421875 24.3125 -1.421875 
Q 15.921875 -1.421875 10.953125 3.296875 
Q 6 8.015625 6 15.921875 
Q 6 25.140625 12.171875 29.828125 
Q 18.359375 34.515625 30.609375 34.515625 
L 43.21875 34.515625 
L 43.21875 35.40625 
Q 43.21875 41.609375 39.140625 45 
Q 35.0625 48.390625 27.6875 48.390625 
Q 23 48.390625 18.546875 47.265625 
Q 14.109375 46.140625 10.015625 43.890625 
L 10.015625 52.203125 
Q 14.9375 54.109375 19.578125 55.046875 
Q 24.21875 56 28.609375 56 
Q 40.484375 56 46.34375 49.84375 
Q 52.203125 43.703125 52.203125 31.203125 
z
" id="DejaVuSans-97"/>
       <path d="M 9.421875 75.984375 
L 18.40625 75.984375 
L 18.40625 0 
L 9.421875 0 
z
" id="DejaVuSans-108"/>
       <path d="M 56.203125 29.59375 
L 56.203125 25.203125 
L 14.890625 25.203125 
Q 15.484375 15.921875 20.484375 11.0625 
Q 25.484375 6.203125 34.421875 6.203125 
Q 39.59375 6.203125 44.453125 7.46875 
Q 49.3125 8.734375 54.109375 11.28125 
L 54.109375 2.78125 
Q 49.265625 0.734375 44.1875 -0.34375 
Q 39.109375 -1.421875 33.890625 -1.421875 
Q 20.796875 -1.421875 13.15625 6.1875 
Q 5.515625 13.8125 5.515625 26.8125 
Q 5.515625 40.234375 12.765625 48.109375 
Q 20.015625 56 32.328125 56 
Q 43.359375 56 49.78125 48.890625 
Q 56.203125 41.796875 56.203125 29.59375 
z
M 47.21875 32.234375 
Q 47.125 39.59375 43.09375 43.984375 
Q 39.0625 48.390625 32.421875 48.390625 
Q 24.90625 48.390625 20.390625 44.140625 
Q 15.875 39.890625 15.1875 32.171875 
z
" id="DejaVuSans-101"/>
       <path d="M 45.40625 46.390625 
L 45.40625 75.984375 
L 54.390625 75.984375 
L 54.390625 0 
L 45.40625 0 
L 45.40625 8.203125 
Q 42.578125 3.328125 38.25 0.953125 
Q 33.9375 -1.421875 27.875 -1.421875 
Q 17.96875 -1.421875 11.734375 6.484375 
Q 5.515625 14.40625 5.515625 27.296875 
Q 5.515625 40.1875 11.734375 48.09375 
Q 17.96875 56 27.875 56 
Q 33.9375 56 38.25 53.625 
Q 42.578125 51.265625 45.40625 46.390625 
z
M 14.796875 27.296875 
Q 14.796875 17.390625 18.875 11.75 
Q 22.953125 6.109375 30.078125 6.109375 
Q 37.203125 6.109375 41.296875 11.75 
Q 45.40625 17.390625 45.40625 27.296875 
Q 45.40625 37.203125 41.296875 42.84375 
Q 37.203125 48.484375 30.078125 48.484375 
Q 22.953125 48.484375 18.875 42.84375 
Q 14.796875 37.203125 14.796875 27.296875 
z
" id="DejaVuSans-100"/>
       <path d="M 8.015625 75.875 
L 15.828125 75.875 
Q 23.140625 64.359375 26.78125 53.3125 
Q 30.421875 42.28125 30.421875 31.390625 
Q 30.421875 20.453125 26.78125 9.375 
Q 23.140625 -1.703125 15.828125 -13.1875 
L 8.015625 -13.1875 
Q 14.5 -2 17.703125 9.0625 
Q 20.90625 20.125 20.90625 31.390625 
Q 20.90625 42.671875 17.703125 53.65625 
Q 14.5 64.65625 8.015625 75.875 
z
" id="DejaVuSans-41"/>
      </defs>
      <use xlink:href="#DejaVuSans-73"/>
      <use x="29.492188" xlink:href="#DejaVuSans-110"/>
      <use x="92.871094" xlink:href="#DejaVuSans-102"/>
      <use x="128.076172" xlink:href="#DejaVuSans-32"/>
      <use x="159.863281" xlink:href="#DejaVuSans-40"/>
      <use x="198.876953" xlink:href="#DejaVuSans-115"/>
      <use x="250.976562" xlink:href="#DejaVuSans-99"/>
      <use x="305.957031" xlink:href="#DejaVuSans-97"/>
      <use x="367.236328" xlink:href="#DejaVuSans-108"/>
      <use x="395.019531" xlink:href="#DejaVuSans-101"/>
      <use x="456.542969" xlink:href="#DejaVuSans-100"/>
      <use x="520.019531" xlink:href="#DejaVuSans-41"/>
     </g>
    </g>
    <g id="line2d_29">
     <path d="M 35.925 107.840312 
L 55.925 107.840312 
" style="fill:none;stroke:#2ca02c;stroke-linecap:square;stroke-width:1.5;"/>
    </g>
    <g id="line2d_30"/>
    <g id="text_15">
     <!-- SIM w/ auto, raw -->
     <g transform="translate(63.925 111.340312)scale(0.1 -0.1)">
      <defs>
       <path d="M 53.515625 70.515625 
L 53.515625 60.890625 
Q 47.90625 63.578125 42.921875 64.890625 
Q 37.9375 66.21875 33.296875 66.21875 
Q 25.25 66.21875 20.875 63.09375 
Q 16.5 59.96875 16.5 54.203125 
Q 16.5 49.359375 19.40625 46.890625 
Q 22.3125 44.4375 30.421875 42.921875 
L 36.375 41.703125 
Q 47.40625 39.59375 52.65625 34.296875 
Q 57.90625 29 57.90625 20.125 
Q 57.90625 9.515625 50.796875 4.046875 
Q 43.703125 -1.421875 29.984375 -1.421875 
Q 24.8125 -1.421875 18.96875 -0.25 
Q 13.140625 0.921875 6.890625 3.21875 
L 6.890625 13.375 
Q 12.890625 10.015625 18.65625 8.296875 
Q 24.421875 6.59375 29.984375 6.59375 
Q 38.421875 6.59375 43.015625 9.90625 
Q 47.609375 13.234375 47.609375 19.390625 
Q 47.609375 24.75 44.3125 27.78125 
Q 41.015625 30.8125 33.5 32.328125 
L 27.484375 33.5 
Q 16.453125 35.6875 11.515625 40.375 
Q 6.59375 45.0625 6.59375 53.421875 
Q 6.59375 63.09375 13.40625 68.65625 
Q 20.21875 74.21875 32.171875 74.21875 
Q 37.3125 74.21875 42.625 73.28125 
Q 47.953125 72.359375 53.515625 70.515625 
z
" id="DejaVuSans-83"/>
       <path d="M 9.8125 72.90625 
L 24.515625 72.90625 
L 43.109375 23.296875 
L 61.8125 72.90625 
L 76.515625 72.90625 
L 76.515625 0 
L 66.890625 0 
L 66.890625 64.015625 
L 48.09375 14.015625 
L 38.1875 14.015625 
L 19.390625 64.015625 
L 19.390625 0 
L 9.8125 0 
z
" id="DejaVuSans-77"/>
       <path d="M 4.203125 54.6875 
L 13.1875 54.6875 
L 24.421875 12.015625 
L 35.59375 54.6875 
L 46.1875 54.6875 
L 57.421875 12.015625 
L 68.609375 54.6875 
L 77.59375 54.6875 
L 63.28125 0 
L 52.6875 0 
L 40.921875 44.828125 
L 29.109375 0 
L 18.5 0 
z
" id="DejaVuSans-119"/>
       <path d="M 25.390625 72.90625 
L 33.6875 72.90625 
L 8.296875 -9.28125 
L 0 -9.28125 
z
" id="DejaVuSans-47"/>
       <path d="M 8.5 21.578125 
L 8.5 54.6875 
L 17.484375 54.6875 
L 17.484375 21.921875 
Q 17.484375 14.15625 20.5 10.265625 
Q 23.53125 6.390625 29.59375 6.390625 
Q 36.859375 6.390625 41.078125 11.03125 
Q 45.3125 15.671875 45.3125 23.6875 
L 45.3125 54.6875 
L 54.296875 54.6875 
L 54.296875 0 
L 45.3125 0 
L 45.3125 8.40625 
Q 42.046875 3.421875 37.71875 1 
Q 33.40625 -1.421875 27.6875 -1.421875 
Q 18.265625 -1.421875 13.375 4.4375 
Q 8.5 10.296875 8.5 21.578125 
z
M 31.109375 56 
z
" id="DejaVuSans-117"/>
       <path d="M 18.3125 70.21875 
L 18.3125 54.6875 
L 36.8125 54.6875 
L 36.8125 47.703125 
L 18.3125 47.703125 
L 18.3125 18.015625 
Q 18.3125 11.328125 20.140625 9.421875 
Q 21.96875 7.515625 27.59375 7.515625 
L 36.8125 7.515625 
L 36.8125 0 
L 27.59375 0 
Q 17.1875 0 13.234375 3.875 
Q 9.28125 7.765625 9.28125 18.015625 
L 9.28125 47.703125 
L 2.6875 47.703125 
L 2.6875 54.6875 
L 9.28125 54.6875 
L 9.28125 70.21875 
z
" id="DejaVuSans-116"/>
       <path d="M 30.609375 48.390625 
Q 23.390625 48.390625 19.1875 42.75 
Q 14.984375 37.109375 14.984375 27.296875 
Q 14.984375 17.484375 19.15625 11.84375 
Q 23.34375 6.203125 30.609375 6.203125 
Q 37.796875 6.203125 41.984375 11.859375 
Q 46.1875 17.53125 46.1875 27.296875 
Q 46.1875 37.015625 41.984375 42.703125 
Q 37.796875 48.390625 30.609375 48.390625 
z
M 30.609375 56 
Q 42.328125 56 49.015625 48.375 
Q 55.71875 40.765625 55.71875 27.296875 
Q 55.71875 13.875 49.015625 6.21875 
Q 42.328125 -1.421875 30.609375 -1.421875 
Q 18.84375 -1.421875 12.171875 6.21875 
Q 5.515625 13.875 5.515625 27.296875 
Q 5.515625 40.765625 12.171875 48.375 
Q 18.84375 56 30.609375 56 
z
" id="DejaVuSans-111"/>
       <path d="M 11.71875 12.40625 
L 22.015625 12.40625 
L 22.015625 4 
L 14.015625 -11.625 
L 7.71875 -11.625 
L 11.71875 4 
z
" id="DejaVuSans-44"/>
       <path d="M 41.109375 46.296875 
Q 39.59375 47.171875 37.8125 47.578125 
Q 36.03125 48 33.890625 48 
Q 26.265625 48 22.1875 43.046875 
Q 18.109375 38.09375 18.109375 28.8125 
L 18.109375 0 
L 9.078125 0 
L 9.078125 54.6875 
L 18.109375 54.6875 
L 18.109375 46.1875 
Q 20.953125 51.171875 25.484375 53.578125 
Q 30.03125 56 36.53125 56 
Q 37.453125 56 38.578125 55.875 
Q 39.703125 55.765625 41.0625 55.515625 
z
" id="DejaVuSans-114"/>
      </defs>
      <use xlink:href="#DejaVuSans-83"/>
      <use x="63.476562" xlink:href="#DejaVuSans-73"/>
      <use x="92.96875" xlink:href="#DejaVuSans-77"/>
      <use x="179.248047" xlink:href="#DejaVuSans-32"/>
      <use x="211.035156" xlink:href="#DejaVuSans-119"/>
      <use x="292.822266" xlink:href="#DejaVuSans-47"/>
      <use x="326.513672" xlink:href="#DejaVuSans-32"/>
      <use x="358.300781" xlink:href="#DejaVuSans-97"/>
      <use x="419.580078" xlink:href="#DejaVuSans-117"/>
      <use x="482.958984" xlink:href="#DejaVuSans-116"/>
      <use x="522.167969" xlink:href="#DejaVuSans-111"/>
      <use x="583.349609" xlink:href="#DejaVuSans-44"/>
      <use x="615.136719" xlink:href="#DejaVuSans-32"/>
      <use x="646.923828" xlink:href="#DejaVuSans-114"/>
      <use x="688.037109" xlink:href="#DejaVuSans-97"/>
      <use x="749.316406" xlink:href="#DejaVuSans-119"/>
     </g>
    </g>
    <g id="line2d_31">
     <path d="M 35.925 122.518437 
L 55.925 122.518437 
" style="fill:none;stroke:#d62728;stroke-dasharray:5.55,2.4;stroke-dashoffset:0;stroke-width:1.5;"/>
    </g>
    <g id="line2d_32"/>
    <g id="text_16">
     <!-- SIM w/ auto, scaled -->
     <g transform="translate(63.925 126.018437)scale(0.1 -0.1)">
      <use xlink:href="#DejaVuSans-83"/>
      <use x="63.476562" xlink:href="#DejaVuSans-73"/>
      <use x="92.96875" xlink:href="#DejaVuSans-77"/>
      <use x="179.248047" xlink:href="#DejaVuSans-32"/>
      <use x="211.035156" xlink:href="#DejaVuSans-119"/>
      <use x="292.822266" xlink:href="#DejaVuSans-47"/>
      <use x="326.513672" xlink:href="#DejaVuSans-32"/>
      <use x="358.300781" xlink:href="#DejaVuSans-97"/>
      <use x="419.580078" xlink:href="#DejaVuSans-117"/>
      <use x="482.958984" xlink:href="#DejaVuSans-116"/>
      <use x="522.167969" xlink:href="#DejaVuSans-111"/>
      <use x="583.349609" xlink:href="#DejaVuSans-44"/>
      <use x="615.136719" xlink:href="#DejaVuSans-32"/>
      <use x="646.923828" xlink:href="#DejaVuSans-115"/>
      <use x="699.023438" xlink:href="#DejaVuSans-99"/>
      <use x="754.003906" xlink:href="#DejaVuSans-97"/>
      <use x="815.283203" xlink:href="#DejaVuSans-108"/>
      <use x="843.066406" xlink:href="#DejaVuSans-101"/>
      <use x="904.589844" xlink:href="#DejaVuSans-100"/>
     </g>
    </g>
    <g id="line2d_33">
     <path d="M 35.925 137.196562 
L 55.925 137.196562 
" style="fill:none;stroke:#9467bd;stroke-dasharray:9.6,2.4,1.5,2.4;stroke-dashoffset:0;stroke-width:1.5;"/>
    </g>
    <g id="line2d_34"/>
    <g id="text_17">
     <!-- SIM no auto, raw -->
     <g transform="translate(63.925 140.696562)scale(0.1 -0.1)">
      <use xlink:href="#DejaVuSans-83"/>
      <use x="63.476562" xlink:href="#DejaVuSans-73"/>
      <use x="92.96875" xlink:href="#DejaVuSans-77"/>
      <use x="179.248047" xlink:href="#DejaVuSans-32"/>
      <use x="211.035156" xlink:href="#DejaVuSans-110"/>
      <use x="274.414062" xlink:href="#DejaVuSans-111"/>
      <use x="335.595703" xlink:href="#DejaVuSans-32"/>
      <use x="367.382812" xlink:href="#DejaVuSans-97"/>
      <use x="428.662109" xlink:href="#DejaVuSans-117"/>
      <use x="492.041016" xlink:href="#DejaVuSans-116"/>
      <use x="531.25" xlink:href="#DejaVuSans-111"/>
      <use x="592.431641" xlink:href="#DejaVuSans-44"/>
      <use x="624.21875" xlink:href="#DejaVuSans-32"/>
      <use x="656.005859" xlink:href="#DejaVuSans-114"/>
      <use x="697.119141" xlink:href="#DejaVuSans-97"/>
      <use x="758.398438" xlink:href="#DejaVuSans-119"/>
     </g>
    </g>
    <g id="line2d_35">
     <path d="M 35.925 151.874687 
L 55.925 151.874687 
" style="fill:none;stroke:#8c564b;stroke-dasharray:1.5,2.475;stroke-dashoffset:0;stroke-width:1.5;"/>
    </g>
    <g id="line2d_36"/>
    <g id="text_18">
     <!-- SIM no auto, scaled -->
     <g transform="translate(63.925 155.374687)scale(0.1 -0.1)">
      <use xlink:href="#DejaVuSans-83"/>
      <use x="63.476562" xlink:href="#DejaVuSans-73"/>
      <use x="92.96875" xlink:href="#DejaVuSans-77"/>
      <use x="179.248047" xlink:href="#DejaVuSans-32"/>
      <use x="211.035156" xlink:href="#DejaVuSans-110"/>
      <use x="274.414062" xlink:href="#DejaVuSans-111"/>
      <use x="335.595703" xlink:href="#DejaVuSans-32"/>
      <use x="367.382812" xlink:href="#DejaVuSans-97"/>
      <use x="428.662109" xlink:href="#DejaVuSans-117"/>
      <use x="492.041016" xlink:href="#DejaVuSans-116"/>
      <use x="531.25" xlink:href="#DejaVuSans-111"/>
      <use x="592.431641" xlink:href="#DejaVuSans-44"/>
      <use x="624.21875" xlink:href="#DejaVuSans-32"/>
      <use x="656.005859" xlink:href="#DejaVuSans-115"/>
      <use x="708.105469" xlink:href="#DejaVuSans-99"/>
      <use x="763.085938" xlink:href="#DejaVuSans-97"/>
      <use x="824.365234" xlink:href="#DejaVuSans-108"/>
      <use x="852.148438" xlink:href="#DejaVuSans-101"/>
      <use x="913.671875" xlink:href="#DejaVuSans-100"/>
     </g>
    </g>
   </g>
  </g>
 </g>
 <defs>
  <clipPath id="p1b25cbb821">
   <rect height="217.44" width="334.8" x="26.925" y="7.2"/>
  </clipPath>
 </defs>
</svg>
